<svg id="Logo_Blueprint_copy" data-name="Logo Blueprint copy" xmlns="http://www.w3.org/2000/svg" viewBox="0 0 250 109.595"><defs><style>.cls-1{fill:#292c2b;}</style></defs><title>LPI_Logo-Black</title><path class="cls-1" d="M70.074,39.07519a4.93746,4.93746,0,1,1-4.94446-4.93452A4.95213,4.95213,0,0,1,70.074,39.07519"/><polygon class="cls-1" points="57.153 29.79 47.231 29.79 35.379 73.81 69.116 73.81 71.762 63.888 48.053 63.888 57.153 29.79"/><path class="cls-1" d="M52.22008,14.28257A39.7205,39.7205,0,1,0,91.94021,54.00163,39.72062,39.72062,0,0,0,52.22008,14.28257Zm0,69.46668a29.74642,29.74642,0,1,1,29.747-29.74642A29.747,29.747,0,0,1,52.22008,83.74925Z"/><path class="cls-1" d="M114.76965,46.00921a5.00106,5.00106,0,0,1,3.53961,1.26135,4.2313,4.2313,0,0,1,1.36136,3.25077,4.18087,4.18087,0,0,1-1.378,3.25625,5.21424,5.21424,0,0,1-3.63415,1.24468h-2.88953v6.51261h-3.00062V46.00921Zm-.74462,6.66811a2.87854,2.87854,0,0,0,1.87263-.55007,1.981,1.981,0,0,0,.67234-1.62818q0-2.14491-2.75618-2.14491h-2.0449v4.32317Z"/><path class="cls-1" d="M128.78749,50.95472a2.52806,2.52806,0,0,1,1.0724.24455,5.97785,5.97785,0,0,1,1.22813.82237L130.11,54.411a3.5984,3.5984,0,0,0-1.91155-.889,2.04457,2.04457,0,0,0-1.25028.47232,3.37785,3.37785,0,0,0-.98917,1.25028,3.57819,3.57819,0,0,0-.37231,1.55591v4.73441h-2.73392V51.15474h2.73392v2.6451h.04453a7.21212,7.21212,0,0,1,1.50031-2.17278A2.44078,2.44078,0,0,1,128.78749,50.95472Z"/><path class="cls-1" d="M138.19511,50.95472a6.36123,6.36123,0,0,1,2.94513.67794A4.92529,4.92529,0,0,1,143.185,53.533a5.33618,5.33618,0,0,1,.72247,2.76737,5.57524,5.57524,0,0,1-.69461,2.82274,4.87005,4.87005,0,0,1-2.0449,1.91155,6.36007,6.36007,0,0,1-2.97288.70021,6.28363,6.28363,0,0,1-2.96728-.70021,4.89136,4.89136,0,0,1-2.02823-1.91155,5.574,5.574,0,0,1-.69461-2.82274,5.28655,5.28655,0,0,1,.73343-2.784,4.991,4.991,0,0,1,2.0449-1.88929A6.2889,6.2889,0,0,1,138.19511,50.95472Zm-2.82286,5.34568a3.79634,3.79634,0,0,0,.7613,2.48389,2.50245,2.50245,0,0,0,2.03929.928,2.62874,2.62874,0,0,0,2.10052-.88916,3.7841,3.7841,0,0,0,.76676-2.545,3.53056,3.53056,0,0,0-.77237-2.43948,2.67282,2.67282,0,0,0-2.09491-.8613,2.5342,2.5342,0,0,0-2.02263.91131A3.58741,3.58741,0,0,0,135.37226,56.3004Z"/><path class="cls-1" d="M151.60169,45.80919a5.67385,5.67385,0,0,1,.98358.08894,3.35192,3.35192,0,0,1,.81689.23336v2.22266a4.64907,4.64907,0,0,0-1.23361-.15561,1.937,1.937,0,0,0-1.47257.51126,2.43519,2.43519,0,0,0-.48339,1.70033v.74462h1.77808v2.06717h-1.77808v8.313h-2.73392v-8.313h-1.47816V51.15474h1.47816v-.778a4.75068,4.75068,0,0,1,1.128-3.334A3.86276,3.86276,0,0,1,151.60169,45.80919Z"/><path class="cls-1" d="M159.23123,50.95472a4.65257,4.65257,0,0,1,3.623,1.467,5.80784,5.80784,0,0,1,1.33362,4.05647v.41124h-7.346a3.2,3.2,0,0,0,1.03918,2.13932,3.55392,3.55392,0,0,0,2.395.75021,5.33036,5.33036,0,0,0,1.88368-.339,8.23389,8.23389,0,0,0,1.87262-1.028v2.03371a7.46157,7.46157,0,0,1-4.42318,1.28921,5.58687,5.58687,0,0,1-4.01194-1.47816,5.17232,5.17232,0,0,1-1.55591-3.93419A5.35624,5.35624,0,0,1,155.4804,52.455,4.96283,4.96283,0,0,1,159.23123,50.95472Zm2.38935,4.27876a3.00428,3.00428,0,0,0-.689-1.77261,2.03445,2.03445,0,0,0-1.58925-.639,2.28061,2.28061,0,0,0-1.66152.61115,3.01625,3.01625,0,0,0-.79451,1.80047Z"/><path class="cls-1" d="M170.83746,50.95472a6.44544,6.44544,0,0,1,1.61141.19455,8.14574,8.14574,0,0,1,1.60043.61674v2.18932a7.69694,7.69694,0,0,0-1.6671-.8057,4.9581,4.9581,0,0,0-1.58926-.30563,1.64933,1.64933,0,0,0-.92238.22229.71679.71679,0,0,0-.33338.63353.6385.6385,0,0,0,.27777.46673,10.35263,10.35263,0,0,0,1.52257.8557,9.32136,9.32136,0,0,1,2.495,1.66152,2.57257,2.57257,0,0,1,.71688,1.82821,2.8964,2.8964,0,0,1-1.04466,2.36161,4.30375,4.30375,0,0,1-2.82286.8613,8.38868,8.38868,0,0,1-2.07264-.24455,6.94908,6.94908,0,0,1-1.59484-.589V58.62307a7.31694,7.31694,0,0,0,3.36745,1.11133,2.25474,2.25474,0,0,0,1.13361-.25.747.747,0,0,0,.43339-.66127.70665.70665,0,0,0-.15563-.44446,2.03562,2.03562,0,0,0-.46673-.41124q-.31127-.2111-1.94489-1.01132a5.55123,5.55123,0,0,1-1.85594-1.30588,2.499,2.499,0,0,1-.60021-1.67259,2.62732,2.62732,0,0,1,1.07811-2.20052A4.54974,4.54974,0,0,1,170.83746,50.95472Z"/><path class="cls-1" d="M181.16567,50.95472a6.44528,6.44528,0,0,1,1.61139.19455,8.14183,8.14183,0,0,1,1.60032.61674v2.18932a7.69852,7.69852,0,0,0-1.667-.8057,4.958,4.958,0,0,0-1.58925-.30563,1.64935,1.64935,0,0,0-.92238.22229.71679.71679,0,0,0-.33338.63353.63812.63812,0,0,0,.27777.46673,10.34635,10.34635,0,0,0,1.52257.8557,9.32337,9.32337,0,0,1,2.495,1.66152,2.57257,2.57257,0,0,1,.71688,1.82821,2.8964,2.8964,0,0,1-1.04466,2.36161,4.30375,4.30375,0,0,1-2.82286.8613,8.38868,8.38868,0,0,1-2.07264-.24455,6.94908,6.94908,0,0,1-1.59484-.589V58.62307A7.31693,7.31693,0,0,0,180.71,59.7344a2.25388,2.25388,0,0,0,1.13348-.25.74715.74715,0,0,0,.43351-.66127.70657.70657,0,0,0-.15561-.44446,2.03561,2.03561,0,0,0-.46673-.41124q-.31129-.2111-1.94489-1.01132a5.5513,5.5513,0,0,1-1.85595-1.30588,2.49839,2.49839,0,0,1-.6002-1.67259,2.62752,2.62752,0,0,1,1.078-2.20052A4.55034,4.55034,0,0,1,181.16567,50.95472Z"/><path class="cls-1" d="M189.58412,46.35378A1.55583,1.55583,0,0,1,191.129,47.8985a1.5257,1.5257,0,0,1-.45018,1.08359,1.49185,1.49185,0,0,1-2.17825,0,1.50764,1.50764,0,0,1-.46113-1.08359,1.46336,1.46336,0,0,1,.46673-1.09466A1.50739,1.50739,0,0,1,189.58412,46.35378Zm1.367,4.801V61.53487h-2.73392V51.15474Z"/><path class="cls-1" d="M200.05676,50.95472a6.36057,6.36057,0,0,1,2.94513.67794,4.92631,4.92631,0,0,1,2.0449,1.90036,5.33621,5.33621,0,0,1,.72235,2.76737,5.57511,5.57511,0,0,1-.69461,2.82274,4.87012,4.87012,0,0,1-2.0449,1.91155,6.35942,6.35942,0,0,1-2.97288.70021,6.284,6.284,0,0,1-2.96728-.70021,4.892,4.892,0,0,1-2.02822-1.91155,5.57512,5.57512,0,0,1-.69462-2.82274,5.28674,5.28674,0,0,1,.73355-2.784,4.991,4.991,0,0,1,2.0449-1.88929A6.28876,6.28876,0,0,1,200.05676,50.95472ZM197.2339,56.3004a3.79713,3.79713,0,0,0,.76129,2.48389,2.50256,2.50256,0,0,0,2.03942.928,2.62845,2.62845,0,0,0,2.10038-.88916,3.78406,3.78406,0,0,0,.76688-2.545,3.53107,3.53107,0,0,0-.77236-2.43948,2.67282,2.67282,0,0,0-2.09491-.8613,2.53431,2.53431,0,0,0-2.02276.91131A3.58746,3.58746,0,0,0,197.2339,56.3004Z"/><path class="cls-1" d="M215.11009,50.95472a3.42054,3.42054,0,0,1,2.66165,1.09466,4.123,4.123,0,0,1,.99477,2.88406v6.60143h-2.72283V55.21121a2.448,2.448,0,0,0-.48353-1.60032,1.61308,1.61308,0,0,0-1.317-.589,2.09712,2.09712,0,0,0-1.18908.37231,5.596,5.596,0,0,0-1.22254,1.23909v6.90159h-2.73392V51.15474h2.73392v1.4559a4.86922,4.86922,0,0,1,1.55032-1.27254A3.92585,3.92585,0,0,1,215.11009,50.95472Z"/><path class="cls-1" d="M226.28293,50.95472a4.77506,4.77506,0,0,1,3.05622.85023,2.87579,2.87579,0,0,1,1.05573,2.37268v5.079q0,.589.47792.589a1.44062,1.44062,0,0,0,.56126-.17228,2.48282,2.48282,0,0,0,.60569-.39457v1.57818a5.1191,5.1191,0,0,1-2.62285.878,2.152,2.152,0,0,1-1.128-.24455,1.3439,1.3439,0,0,1-.55007-.86678,5.40853,5.40853,0,0,1-3.14516,1.11133,2.7206,2.7206,0,0,1-1.92822-.75569,2.39722,2.39722,0,0,1-.8057-1.81154,2.82322,2.82322,0,0,1,.8001-2.12265,6.80314,6.80314,0,0,1,2.80059-1.35589l2.21171-.64461V54.5666q0-1.52251-1.84488-1.52257a4.42357,4.42357,0,0,0-1.87821.43351,5.325,5.325,0,0,0-1.70033,1.278V52.29941A6.3079,6.3079,0,0,1,226.28293,50.95472Zm-1.667,7.8017a1.20112,1.20112,0,0,0,.36112.91131,1.24624,1.24624,0,0,0,.89464.34457,2.69457,2.69457,0,0,0,1.80047-.82237v-2.734a12.70223,12.70223,0,0,0-1.79487.73355,3.28686,3.28686,0,0,0-.95584.70009A1.28477,1.28477,0,0,0,224.61594,58.75642Z"/><path class="cls-1" d="M237.50019,46.00921V61.53487h-2.7339V46.00921Z"/><path class="cls-1" d="M111.83558,70.27868V85.80422H108.835V70.27868Z"/><path class="cls-1" d="M122.13046,75.22419a3.42056,3.42056,0,0,1,2.66177,1.09466,4.123,4.123,0,0,1,.99465,2.88394v6.60143H123.064V79.48068a2.44856,2.44856,0,0,0-.48352-1.60044,1.61276,1.61276,0,0,0-1.317-.589,2.098,2.098,0,0,0-1.18908.37231,5.597,5.597,0,0,0-1.22254,1.2392v6.90147H116.118v-10.38h2.73392v1.4559a4.86761,4.86761,0,0,1,1.55032-1.27254A3.92421,3.92421,0,0,1,122.13046,75.22419Z"/><path class="cls-1" d="M132.93838,75.22419a6.44629,6.44629,0,0,1,1.61151.19443,8.14564,8.14564,0,0,1,1.60033.61686v2.18932a7.69885,7.69885,0,0,0-1.667-.8057,4.95909,4.95909,0,0,0-1.58925-.30563,1.6488,1.6488,0,0,0-.9225.22229.71685.71685,0,0,0-.33338.63341.63831.63831,0,0,0,.27789.46684,10.36215,10.36215,0,0,0,1.52257.8557,9.3228,9.3228,0,0,1,2.495,1.66152,2.572,2.572,0,0,1,.71676,1.82809,2.89575,2.89575,0,0,1-1.04467,2.36161,4.30265,4.30265,0,0,1-2.82286.8613,8.39017,8.39017,0,0,1-2.07264-.24444,6.94794,6.94794,0,0,1-1.59473-.589V82.89254a7.318,7.318,0,0,0,3.36733,1.11133,2.25436,2.25436,0,0,0,1.1336-.25.74715.74715,0,0,0,.43339-.66127.70684.70684,0,0,0-.1555-.44458,2.039,2.039,0,0,0-.46684-.41112q-.31111-.21128-1.94489-1.01144a5.55368,5.55368,0,0,1-1.85595-1.30576,2.49911,2.49911,0,0,1-.60008-1.67259,2.62737,2.62737,0,0,1,1.078-2.20052A4.549,4.549,0,0,1,132.93838,75.22419Z"/><path class="cls-1" d="M142.74426,72.668h.2223v2.75618h3.55627v2.067h-3.55627v4.79a1.55529,1.55529,0,0,0,.4223,1.1336,1.53884,1.53884,0,0,0,1.15574.43339,4.67651,4.67651,0,0,0,2.20052-.689v2.18932a6.8735,6.8735,0,0,1-2.77833.65568,3.76553,3.76553,0,0,1-2.73951-.95572,3.44388,3.44388,0,0,1-.98358-2.58949V77.49126h-1.62259V77.0468Z"/><path class="cls-1" d="M150.896,70.62313a1.55583,1.55583,0,0,1,1.54484,1.54484,1.5259,1.5259,0,0,1-.45018,1.08359,1.49185,1.49185,0,0,1-2.17825,0,1.50784,1.50784,0,0,1-.46113-1.08359,1.46313,1.46313,0,0,1,.46673-1.09466A1.507,1.507,0,0,1,150.896,70.62313Zm1.367,4.80108v10.38H149.529v-10.38Z"/><path class="cls-1" d="M159.06823,72.668h.22229v2.75618h3.55628v2.067h-3.55628v4.79a1.5553,1.5553,0,0,0,.42232,1.1336,1.53884,1.53884,0,0,0,1.15574.43339,4.67651,4.67651,0,0,0,2.20053-.689v2.18932a6.87416,6.87416,0,0,1-2.77846.65568,3.76591,3.76591,0,0,1-2.73951-.95572,3.44381,3.44381,0,0,1-.98346-2.58949V77.49126h-1.62259V77.0468Z"/><path class="cls-1" d="M168.3962,75.42422v6.42367a2.14063,2.14063,0,0,0,.50566,1.53912,1.76851,1.76851,0,0,0,1.3391.52792,2.3492,2.3492,0,0,0,1.32255-.42232,3.04835,3.04835,0,0,0,1.02251-1.18908V75.42422h2.73392v10.38H172.586V84.39285a4.31935,4.31935,0,0,1-3.20076,1.61139,3.51727,3.51727,0,0,1-2.6895-1.08907,3.98836,3.98836,0,0,1-1.0224-2.84512V75.42422Z"/><path class="cls-1" d="M182.038,72.668h.22229v2.75618h3.55628v2.067h-3.55628v4.79a1.5553,1.5553,0,0,0,.42232,1.1336,1.53885,1.53885,0,0,0,1.15575.43339,4.67612,4.67612,0,0,0,2.2005-.689v2.18932a6.87354,6.87354,0,0,1-2.77833.65568,3.76572,3.76572,0,0,1-2.73951-.95572,3.44388,3.44388,0,0,1-.98358-2.58949V77.49126H177.9149V77.0468Z"/><path class="cls-1" d="M193.37758,75.22419a4.65257,4.65257,0,0,1,3.623,1.467,5.80784,5.80784,0,0,1,1.33362,4.05647v.41112h-7.346a3.20017,3.20017,0,0,0,1.03917,2.13944,3.55385,3.55385,0,0,0,2.39495.7501,5.33042,5.33042,0,0,0,1.88369-.339,8.237,8.237,0,0,0,1.87274-1.028v2.03383a7.463,7.463,0,0,1-4.4233,1.28909,5.58732,5.58732,0,0,1-4.01194-1.478,5.1725,5.1725,0,0,1-1.55591-3.93419,5.35605,5.35605,0,0,1,1.43923-3.86751A4.96239,4.96239,0,0,1,193.37758,75.22419Zm2.38935,4.27864a3.00435,3.00435,0,0,0-.689-1.77261,2.0345,2.0345,0,0,0-1.58926-.639,2.27988,2.27988,0,0,0-1.6614.61127,3.01558,3.01558,0,0,0-.79462,1.80035Z"/><path class="cls-1" d="M111.76891,21.635V34.8157h7.535v2.34494H108.76829V21.635Z"/><path class="cls-1" d="M123.60862,21.97955a1.55583,1.55583,0,0,1,1.54472,1.54472,1.52587,1.52587,0,0,1-.45006,1.08359,1.49185,1.49185,0,0,1-2.17825,0,1.50714,1.50714,0,0,1-.46125-1.08359,1.46393,1.46393,0,0,1,.46673-1.09466A1.50745,1.50745,0,0,1,123.60862,21.97955Zm1.367,4.80108v10.38h-2.73392v-10.38Z"/><path class="cls-1" d="M134.94994,26.58049a3.42022,3.42022,0,0,1,2.66165,1.09478,4.12252,4.12252,0,0,1,.99477,2.88394v6.60143h-2.72283V30.837A2.44821,2.44821,0,0,0,135.4,29.23666a1.61276,1.61276,0,0,0-1.317-.589A2.09712,2.09712,0,0,0,132.894,29.02a5.597,5.597,0,0,0-1.22254,1.2392v6.90147h-2.73392v-10.38h2.73392v1.45578a4.8687,4.8687,0,0,1,1.55032-1.27242A3.92429,3.92429,0,0,1,134.94994,26.58049Z"/><path class="cls-1" d="M145.02252,26.78063v6.42355a2.14147,2.14147,0,0,0,.50566,1.53924,1.76876,1.76876,0,0,0,1.33922.52792,2.34918,2.34918,0,0,0,1.32244-.42232,3.04786,3.04786,0,0,0,1.0225-1.1892v-6.8792h2.73393v10.38h-2.73393V35.74927a4.319,4.319,0,0,1-3.20076,1.61139,3.51706,3.51706,0,0,1-2.68939-1.08907,3.98868,3.98868,0,0,1-1.02251-2.84512V26.78063Z"/><path class="cls-1" d="M157.77533,26.78063l2.58949,3.25625,2.48936-3.25625h3.27851l-4.16755,5.10112,4.47878,5.27888h-3.27851l-2.80059-3.43413-2.67843,3.43413h-3.18957l4.3009-5.27888-4.3009-5.10112Z"/></svg>