<svg id="Logo_Blueprint_copy" data-name="Logo Blueprint copy" xmlns="http://www.w3.org/2000/svg" viewBox="0 0 250 109.595"><defs><style>.cls-1{fill:#ffc10e;}.cls-2{fill:#fff;}</style></defs><title>LPI_Logo-ColourReverse</title><path class="cls-1" d="M70.374,39.0257a4.91049,4.91049,0,1,1-4.91746-4.90757A4.92508,4.92508,0,0,1,70.374,39.0257"/><polygon class="cls-1" points="57.576 29.166 47.708 29.166 35.869 73.571 69.421 73.571 72.053 63.703 48.473 63.703 57.576 29.166"/><path class="cls-1" d="M52.6176,14.3685A39.50355,39.50355,0,1,0,92.12079,53.87062,39.50367,39.50367,0,0,0,52.6176,14.3685Zm0,69.08725A29.58395,29.58395,0,1,1,82.20214,53.87181,29.58453,29.58453,0,0,1,52.6176,83.45576Z"/><path class="cls-2" d="M114.82552,45.92185a4.97374,4.97374,0,0,1,3.52028,1.25446,4.20819,4.20819,0,0,1,1.35393,3.233,4.158,4.158,0,0,1-1.3705,3.23846,5.18575,5.18575,0,0,1-3.6143,1.23788h-2.87375v6.477h-2.98423V45.92185Zm-.74055,6.63169a2.86282,2.86282,0,0,0,1.8624-.54707,1.97015,1.97015,0,0,0,.66866-1.61929q0-2.1332-2.74113-2.1332h-2.03373v4.29955Z"/><path class="cls-2" d="M128.76681,50.84035a2.51425,2.51425,0,0,1,1.06654.24322,5.9452,5.9452,0,0,1,1.22142.81787l-.97264,2.3763a3.57875,3.57875,0,0,0-1.90111-.88419,2.0334,2.0334,0,0,0-1.24345.46974,3.3594,3.3594,0,0,0-.98377,1.24345,3.55864,3.55864,0,0,0-.37028,1.54741v4.70855h-2.719V51.03928h2.719v2.63065h.04429a7.17272,7.17272,0,0,1,1.49211-2.16091A2.42744,2.42744,0,0,1,128.76681,50.84035Z"/><path class="cls-2" d="M138.123,50.84035a6.32649,6.32649,0,0,1,2.929.67424,4.89838,4.89838,0,0,1,2.03361,1.89,5.307,5.307,0,0,1,.71853,2.75226,5.54479,5.54479,0,0,1-.69082,2.80732,4.84345,4.84345,0,0,1-2.03373,1.90111,6.32534,6.32534,0,0,1-2.95664.69638,6.24931,6.24931,0,0,1-2.95107-.69638,4.86464,4.86464,0,0,1-2.01715-1.90111,5.54359,5.54359,0,0,1-.69082-2.80732,5.25767,5.25767,0,0,1,.72942-2.76884,4.96371,4.96371,0,0,1,2.03373-1.879A6.25455,6.25455,0,0,1,138.123,50.84035Zm-2.80744,5.31648a3.7756,3.7756,0,0,0,.75714,2.47032,2.48878,2.48878,0,0,0,2.02816.92291,2.61438,2.61438,0,0,0,2.089-.8843,3.76343,3.76343,0,0,0,.76258-2.53106,3.51127,3.51127,0,0,0-.76815-2.42615,2.65822,2.65822,0,0,0-2.08347-.8566,2.52036,2.52036,0,0,0-2.01158.90633A3.56782,3.56782,0,0,0,135.3156,56.15683Z"/><path class="cls-2" d="M151.45639,45.72292a5.64286,5.64286,0,0,1,.9782.08845,3.33361,3.33361,0,0,1,.81243.23209V48.254a4.62368,4.62368,0,0,0-1.22687-.15476,1.92642,1.92642,0,0,0-1.46452.50846,2.42189,2.42189,0,0,0-.48075,1.691v.74055h1.76837v2.05588h-1.76837v8.26755h-2.719V53.09516H145.8858V51.03928h1.47009v-.77371a4.72473,4.72473,0,0,1,1.12184-3.31578A3.84166,3.84166,0,0,1,151.45639,45.72292Z"/><path class="cls-2" d="M159.04426,50.84035a4.62716,4.62716,0,0,1,3.60317,1.459,5.77612,5.77612,0,0,1,1.32634,4.03431v.409h-7.30593a3.18251,3.18251,0,0,0,1.0335,2.12763,3.5345,3.5345,0,0,0,2.38188.74612,5.30125,5.30125,0,0,0,1.87339-.33712,8.18891,8.18891,0,0,0,1.86239-1.02237v2.0226a7.42081,7.42081,0,0,1-4.399,1.28217,5.55636,5.55636,0,0,1-3.99-1.47009,5.14407,5.14407,0,0,1-1.54741-3.9127,5.327,5.327,0,0,1,1.43137-3.84639A4.93572,4.93572,0,0,1,159.04426,50.84035Zm2.3763,4.25539a2.98787,2.98787,0,0,0-.68525-1.76292,2.02334,2.02334,0,0,0-1.58057-.63552,2.26815,2.26815,0,0,0-1.65244.60781,2.99977,2.99977,0,0,0-.79017,1.79063Z"/><path class="cls-2" d="M170.5871,50.84035a6.41023,6.41023,0,0,1,1.6026.19349,8.10125,8.10125,0,0,1,1.59169.61338v2.17737a7.6549,7.6549,0,0,0-1.658-.8013,4.931,4.931,0,0,0-1.58058-.304,1.64032,1.64032,0,0,0-.91734.22108.71288.71288,0,0,0-.33155.63007.635.635,0,0,0,.27626.46418,10.29609,10.29609,0,0,0,1.51426.851,9.27045,9.27045,0,0,1,2.48133,1.65244,2.55852,2.55852,0,0,1,.713,1.81822,2.88058,2.88058,0,0,1-1.039,2.34871,4.28025,4.28025,0,0,1-2.80744.8566,8.34286,8.34286,0,0,1-2.06132-.24322,6.91112,6.91112,0,0,1-1.58613-.58579V58.46682a7.277,7.277,0,0,0,3.34906,1.10526,2.24243,2.24243,0,0,0,1.12742-.24867.743.743,0,0,0,.431-.65766.70279.70279,0,0,0-.15478-.442,2.0245,2.0245,0,0,0-.46418-.409q-.30957-.20995-1.93427-1.00579a5.52091,5.52091,0,0,1-1.8458-1.29875,2.48535,2.48535,0,0,1-.59693-1.66346,2.613,2.613,0,0,1,1.07222-2.1885A4.52488,4.52488,0,0,1,170.5871,50.84035Z"/><path class="cls-2" d="M180.8589,50.84035a6.41007,6.41007,0,0,1,1.60259.19349,8.09736,8.09736,0,0,1,1.59158.61338v2.17737a7.65647,7.65647,0,0,0-1.65789-.8013,4.9309,4.9309,0,0,0-1.58057-.304,1.64035,1.64035,0,0,0-.91734.22108.71288.71288,0,0,0-.33155.63007.63463.63463,0,0,0,.27626.46418,10.28984,10.28984,0,0,0,1.51426.851,9.27244,9.27244,0,0,1,2.48133,1.65244,2.55852,2.55852,0,0,1,.713,1.81822,2.88058,2.88058,0,0,1-1.039,2.34871,4.28025,4.28025,0,0,1-2.80744.8566,8.34286,8.34286,0,0,1-2.06132-.24322,6.91112,6.91112,0,0,1-1.58613-.58579V58.46682a7.277,7.277,0,0,0,3.34906,1.10526,2.24157,2.24157,0,0,0,1.12729-.24867.74307.74307,0,0,0,.43114-.65766.70271.70271,0,0,0-.15476-.442,2.0245,2.0245,0,0,0-.46418-.409q-.30959-.20995-1.93427-1.00579a5.521,5.521,0,0,1-1.84581-1.29875,2.48474,2.48474,0,0,1-.59692-1.66346,2.61317,2.61317,0,0,1,1.07211-2.1885A4.52548,4.52548,0,0,1,180.8589,50.84035Z"/><path class="cls-2" d="M189.23136,46.26454a1.54733,1.54733,0,0,1,1.5364,1.53628,1.51737,1.51737,0,0,1-.44772,1.07767,1.4837,1.4837,0,0,1-2.16635,0,1.49941,1.49941,0,0,1-.45861-1.07767,1.45537,1.45537,0,0,1,.46418-1.08868A1.49915,1.49915,0,0,1,189.23136,46.26454Zm1.35949,4.77474V61.36271h-2.719V51.03928Z"/><path class="cls-2" d="M199.6468,50.84035a6.32583,6.32583,0,0,1,2.929.67424,4.89941,4.89941,0,0,1,2.03373,1.89,5.30706,5.30706,0,0,1,.71841,2.75226,5.54466,5.54466,0,0,1-.69082,2.80732,4.84352,4.84352,0,0,1-2.03373,1.90111,6.32468,6.32468,0,0,1-2.95664.69638,6.24966,6.24966,0,0,1-2.95107-.69638,4.86524,4.86524,0,0,1-2.01714-1.90111,5.54467,5.54467,0,0,1-.69083-2.80732,5.25786,5.25786,0,0,1,.72954-2.76884,4.96371,4.96371,0,0,1,2.03373-1.879A6.25441,6.25441,0,0,1,199.6468,50.84035Zm-2.80744,5.31648a3.77639,3.77639,0,0,0,.75713,2.47032,2.48889,2.48889,0,0,0,2.02829.92291,2.61409,2.61409,0,0,0,2.08891-.8843,3.76339,3.76339,0,0,0,.76269-2.53106,3.51179,3.51179,0,0,0-.76814-2.42615,2.65822,2.65822,0,0,0-2.08347-.8566,2.52047,2.52047,0,0,0-2.01171.90633A3.56787,3.56787,0,0,0,196.83936,56.15683Z"/><path class="cls-2" d="M214.61791,50.84035A3.40185,3.40185,0,0,1,217.265,51.929a4.10051,4.10051,0,0,1,.98934,2.8683v6.56537h-2.708V55.07359a2.43462,2.43462,0,0,0-.48089-1.59158,1.60427,1.60427,0,0,0-1.30976-.58579,2.08566,2.08566,0,0,0-1.18258.37028,5.56542,5.56542,0,0,0-1.21586,1.23232v6.86389h-2.719V51.03928h2.719v1.44795a4.84262,4.84262,0,0,1,1.54185-1.26559A3.90441,3.90441,0,0,1,214.61791,50.84035Z"/><path class="cls-2" d="M225.72973,50.84035a4.749,4.749,0,0,1,3.03953.84558,2.86008,2.86008,0,0,1,1.05,2.35972v5.05124q0,.58579.47531.58579a1.43275,1.43275,0,0,0,.5582-.17134,2.46926,2.46926,0,0,0,.60238-.39242v1.56956a5.09114,5.09114,0,0,1-2.60852.87317,2.14021,2.14021,0,0,1-1.12184-.24322,1.33656,1.33656,0,0,1-.54707-.862,5.379,5.379,0,0,1-3.128,1.10526,2.70574,2.70574,0,0,1-1.91769-.75156,2.38412,2.38412,0,0,1-.8013-1.80164,2.8078,2.8078,0,0,1,.79573-2.11106,6.766,6.766,0,0,1,2.7853-1.34848l2.19963-.64108v-.47531q0-1.5142-1.8348-1.51426a4.3994,4.3994,0,0,0-1.868.43114,5.29591,5.29591,0,0,0-1.691,1.271V52.1777A6.27345,6.27345,0,0,1,225.72973,50.84035Zm-1.65789,7.75909a1.19456,1.19456,0,0,0,.35914.90633,1.23943,1.23943,0,0,0,.88975.34269,2.67985,2.67985,0,0,0,1.79063-.81787v-2.7191a12.63285,12.63285,0,0,0-1.78507.72954,3.26891,3.26891,0,0,0-.95061.69626A1.27776,1.27776,0,0,0,224.07184,58.59944Z"/><path class="cls-2" d="M236.88571,45.92185V61.36271h-2.719V45.92185Z"/><path class="cls-2" d="M111.90749,70.05876V85.4995h-2.98423V70.05876Z"/><path class="cls-2" d="M122.14613,74.97726a3.40188,3.40188,0,0,1,2.64723,1.08868,4.10049,4.10049,0,0,1,.98922,2.86818V85.4995h-2.708v-6.289a2.43518,2.43518,0,0,0-.48088-1.5917A1.604,1.604,0,0,0,121.284,77.033a2.08656,2.08656,0,0,0-1.18258.37028,5.56639,5.56639,0,0,0-1.21586,1.23244V85.4995h-2.719V75.17619h2.719v1.44795a4.841,4.841,0,0,1,1.54185-1.26559A3.90277,3.90277,0,0,1,122.14613,74.97726Z"/><path class="cls-2" d="M132.895,74.97726a6.41108,6.41108,0,0,1,1.60271.19337,8.10115,8.10115,0,0,1,1.59159.61349v2.17737a7.6568,7.6568,0,0,0-1.6579-.8013,4.932,4.932,0,0,0-1.58057-.304,1.63979,1.63979,0,0,0-.91746.22108.71293.71293,0,0,0-.33155.63.63483.63483,0,0,0,.27637.46429,10.30556,10.30556,0,0,0,1.51426.851,9.27188,9.27188,0,0,1,2.48134,1.65244,2.558,2.558,0,0,1,.71284,1.8181,2.87993,2.87993,0,0,1-1.039,2.34871,4.27915,4.27915,0,0,1-2.80744.8566,8.34434,8.34434,0,0,1-2.06132-.2431,6.91,6.91,0,0,1-1.586-.58579V82.60373a7.278,7.278,0,0,0,3.34894,1.10526,2.242,2.242,0,0,0,1.1274-.24867.74307.74307,0,0,0,.431-.65766.703.703,0,0,0-.15465-.44215,2.02783,2.02783,0,0,0-.46429-.40888q-.30941-.21012-1.93427-1.00591a5.52334,5.52334,0,0,1-1.84581-1.29863,2.48546,2.48546,0,0,1-.5968-1.66346,2.613,2.613,0,0,1,1.07211-2.1885A4.52412,4.52412,0,0,1,132.895,74.97726Z"/><path class="cls-2" d="M142.64734,72.43506h.22109v2.74113h3.53685v2.05576h-3.53685V81.9958a1.54679,1.54679,0,0,0,.42,1.1274,1.53044,1.53044,0,0,0,1.14943.431,4.651,4.651,0,0,0,2.1885-.68525v2.17737a6.836,6.836,0,0,1-2.76315.6521,3.745,3.745,0,0,1-2.72455-.9505,3.42507,3.42507,0,0,1-.9782-2.57535V77.23195h-1.61372v-.442Z"/><path class="cls-2" d="M150.75456,70.40133a1.54733,1.54733,0,0,1,1.5364,1.5364,1.51757,1.51757,0,0,1-.44772,1.07767,1.4837,1.4837,0,0,1-2.16635,0,1.4996,1.4996,0,0,1-.45861-1.07767,1.45514,1.45514,0,0,1,.46418-1.08868A1.49879,1.49879,0,0,1,150.75456,70.40133Zm1.3595,4.77486V85.4995h-2.719V75.17619Z"/><path class="cls-2" d="M158.88215,72.43506h.22108v2.74113h3.53686v2.05576h-3.53686V81.9958a1.5468,1.5468,0,0,0,.42,1.1274,1.53044,1.53044,0,0,0,1.14943.431,4.651,4.651,0,0,0,2.18851-.68525v2.17737a6.83661,6.83661,0,0,1-2.76328.6521,3.74534,3.74534,0,0,1-2.72455-.9505,3.425,3.425,0,0,1-.97809-2.57535V77.23195h-1.61372v-.442Z"/><path class="cls-2" d="M168.15917,75.17619v6.38858a2.12894,2.12894,0,0,0,.5029,1.53072,1.75885,1.75885,0,0,0,1.33178.525,2.33637,2.33637,0,0,0,1.31532-.42,3.0317,3.0317,0,0,0,1.01693-1.18258V75.17619h2.719V85.4995h-2.719V84.09584a4.29576,4.29576,0,0,1-3.18328,1.60259,3.49806,3.49806,0,0,1-2.67481-1.08312,3.96658,3.96658,0,0,1-1.01682-2.82958V75.17619Z"/><path class="cls-2" d="M181.7265,72.43506h.22108v2.74113h3.53686v2.05576h-3.53686V81.9958a1.5468,1.5468,0,0,0,.42,1.1274,1.53045,1.53045,0,0,0,1.14944.431,4.65058,4.65058,0,0,0,2.18849-.68525v2.17737a6.836,6.836,0,0,1-2.76315.6521,3.74515,3.74515,0,0,1-2.72455-.9505,3.42507,3.42507,0,0,1-.9782-2.57535V77.23195h-1.61372v-.442Z"/><path class="cls-2" d="M193.0041,74.97726a4.62716,4.62716,0,0,1,3.60317,1.459,5.77612,5.77612,0,0,1,1.32634,4.03431v.40888h-7.30591a3.18269,3.18269,0,0,0,1.03349,2.12775,3.53444,3.53444,0,0,0,2.38187.746,5.30131,5.30131,0,0,0,1.8734-.33712,8.192,8.192,0,0,0,1.86251-1.02237v2.02272a7.42221,7.42221,0,0,1-4.39914,1.28205,5.5568,5.5568,0,0,1-3.99-1.47,5.14425,5.14425,0,0,1-1.54741-3.9127,5.3268,5.3268,0,0,1,1.43137-3.84639A4.93529,4.93529,0,0,1,193.0041,74.97726Zm2.3763,4.25527a2.98794,2.98794,0,0,0-.68524-1.76292,2.02338,2.02338,0,0,0-1.58058-.63552,2.26743,2.26743,0,0,0-1.65233.60793,2.99911,2.99911,0,0,0-.79028,1.79051Z"/><path class="cls-2" d="M111.84118,21.68075V34.78948H119.335v2.33213H108.85695V21.68075Z"/><path class="cls-2" d="M123.61622,22.02344a1.54733,1.54733,0,0,1,1.53628,1.53628,1.51754,1.51754,0,0,1-.4476,1.07767,1.4837,1.4837,0,0,1-2.16635,0,1.4989,1.4989,0,0,1-.45873-1.07767A1.45594,1.45594,0,0,1,122.544,22.471,1.49922,1.49922,0,0,1,123.61622,22.02344Zm1.35949,4.77486V37.12161h-2.719V26.7983Z"/><path class="cls-2" d="M134.89559,26.59925a3.40154,3.40154,0,0,1,2.64711,1.0888,4.1,4.1,0,0,1,.98934,2.86818v6.56537h-2.708V30.83249a2.43484,2.43484,0,0,0-.48088-1.59158,1.604,1.604,0,0,0-1.30976-.58579,2.08566,2.08566,0,0,0-1.18258.37028,5.56639,5.56639,0,0,0-1.21586,1.23244v6.86377h-2.719V26.7983h2.719v1.44783a4.84211,4.84211,0,0,1,1.54185-1.26547A3.90285,3.90285,0,0,1,134.89559,26.59925Z"/><path class="cls-2" d="M144.91316,26.7983v6.38847a2.12977,2.12977,0,0,0,.5029,1.53084,1.7591,1.7591,0,0,0,1.3319.525,2.33635,2.33635,0,0,0,1.31522-.42,3.03121,3.03121,0,0,0,1.01691-1.1827V26.7983h2.719V37.12161h-2.719V35.718a4.29538,4.29538,0,0,1-3.18328,1.60259,3.49785,3.49785,0,0,1-2.6747-1.08312,3.96689,3.96689,0,0,1-1.01693-2.82958V26.7983Z"/><path class="cls-2" d="M157.59631,26.7983l2.57535,3.23846,2.47577-3.23846h3.2606l-4.14479,5.07326,4.45432,5.25H162.957l-2.7853-3.41537-2.6638,3.41537h-3.17215l4.27741-5.25-4.27741-5.07326Z"/></svg>